<?xml version="1.0" encoding="UTF-8" standalone="no"?>
<!-- Created with Inkscape (http://www.inkscape.org/) -->

<svg
   width="81.334564mm"
   height="77.263832mm"
   viewBox="0 0 81.334564 77.263832"
   version="1.1"
   id="svg1"
   inkscape:export-filename="queenbee.svg"
   inkscape:export-xdpi="96"
   inkscape:export-ydpi="96"
   xmlns:inkscape="http://www.inkscape.org/namespaces/inkscape"
   xmlns:sodipodi="http://sodipodi.sourceforge.net/DTD/sodipodi-0.dtd"
   xmlns="http://www.w3.org/2000/svg"
   xmlns:svg="http://www.w3.org/2000/svg">
  <sodipodi:namedview
     id="namedview1"
     pagecolor="#ffffff"
     bordercolor="#000000"
     borderopacity="0.25"
     inkscape:showpageshadow="2"
     inkscape:pageopacity="0.0"
     inkscape:pagecheckerboard="0"
     inkscape:deskcolor="#d1d1d1"
     inkscape:document-units="mm">
    <inkscape:page
       x="0"
       y="0"
       width="81.334564"
       height="77.263832"
       id="page2"
       margin="0"
       bleed="0" />
  </sodipodi:namedview>
  <defs
     id="defs1" />
  <g
     inkscape:groupmode="layer"
     id="layer2"
     inkscape:label="Layer 2"
     transform="translate(-55.940513,-115.4773)">
    <ellipse
       style="fill:#3b3b3b;fill-opacity:0.406162;stroke-width:0.207937"
       id="path5"
       cx="-29.653341"
       cy="152.67178"
       rx="3.8643122"
       ry="11.224907"
       transform="rotate(-42.443726)" />
    <ellipse
       style="fill:#9b9b9b;fill-opacity:1;stroke-width:0.216031"
       id="path3"
       cx="-39.950436"
       cy="147.25087"
       rx="3.6802971"
       ry="12.697025"
       transform="rotate(-41.528169)" />
  </g>
  <g
     inkscape:label="Layer 1"
     inkscape:groupmode="layer"
     id="layer1"
     transform="translate(-55.940513,-115.4773)">
    <ellipse
       style="fill:#ffcc00;stroke-width:0.264583"
       id="path1"
       cx="82.070625"
       cy="156.41264"
       rx="26.130112"
       ry="25.762081" />
    <ellipse
       style="fill:#ffcc00;stroke-width:0.2864"
       id="path2"
       cx="116.29739"
       cy="151.62825"
       rx="20.977694"
       ry="21.345724" />
    <ellipse
       style="fill:#aaaaaa;fill-opacity:0.616247;stroke-width:0.264583"
       id="path4"
       cx="12.966444"
       cy="150.74324"
       rx="4.048327"
       ry="12.14498"
       transform="rotate(-28.474205)" />
    <ellipse
       style="fill:#c2c2c2;fill-opacity:0.557423;stroke-width:0.264583"
       id="path6"
       cx="-25.361086"
       cy="143.8429"
       rx="4.4163566"
       ry="11.776952"
       transform="rotate(-37.742526)"
       inkscape:transform-center-x="-6.2565056"
       inkscape:transform-center-y="-21.345725" />
    <ellipse
       style="fill:#3b3b3b;fill-opacity:0.406162;stroke-width:0.274963"
       id="path7"
       cx="125.31412"
       cy="147.67192"
       rx="4.9684014"
       ry="5.4284387" />
    <path
       style="fill:#717171;fill-opacity:1;stroke-width:0.264583"
       id="path9"
       d="m 102.91395,175.73845 c 1.18241,0.57424 2.93824,1.58326 -2.25391,-1.33803 -0.15298,-0.0861 0.29946,0.1834 0.44581,0.28033 0.34592,0.2291 0.48027,0.33954 0.80957,0.58975 0.60158,0.45965 1.14441,0.98323 1.61381,1.57631 0.42316,0.55057 0.50261,1.25812 0.60131,1.92499 0.15645,0.85189 0.23888,1.71127 0.28451,2.57531 0.0711,0.88968 -0.0507,1.7503 -0.31089,2.59848 0,0 3.40117,1.86452 3.40117,1.86452 v 0 c 0.28067,-0.88676 0.45666,-1.78492 0.36709,-2.72085 -0.0321,-0.86987 -0.0737,-1.74139 -0.24735,-2.59691 -0.091,-0.70762 -0.15084,-1.46329 -0.4937,-2.09929 -0.47327,-0.62731 -0.99722,-1.20708 -1.62541,-1.6859 -1.72764,-1.39455 -3.69147,-2.47151 -5.695397,-3.42136 z" />
    <path
       style="fill:#717171;fill-opacity:1;stroke-width:0.264583"
       id="path10"
       d="m 93.014431,180.35886 c 1.574295,0.91522 -1.857822,-1.08128 -2.457233,-1.39893 -0.211831,-0.11226 0.394425,0.2733 0.581663,0.42302 0.669483,0.53534 1.22633,1.14946 1.781775,1.79784 0.788517,1.02041 1.423789,2.2204 1.553927,3.52565 0.03071,0.30802 0.0122,0.61897 0.01831,0.92845 -0.129743,1.18371 -0.03811,0.61122 -0.26653,1.71878 0,0 3.330874,1.7797 3.330874,1.7797 v 0 c 0.218598,-1.15878 0.125555,-0.56149 0.273071,-1.7928 0.01389,-0.32458 0.05579,-0.64917 0.04171,-0.97374 -0.05871,-1.35339 -0.69547,-2.64003 -1.47896,-3.71055 -0.486579,-0.60101 -0.57971,-0.74626 -1.121883,-1.2961 -1.506149,-1.52744 -3.428897,-2.5016 -5.346634,-3.45002 z" />
    <path
       style="fill:#717171;fill-opacity:1;stroke-width:0.264583"
       id="path11"
       d="m 82.35208,180.96566 c 0.363051,1.32442 0.621596,2.66679 0.785611,4.02945 0.186907,1.51612 -0.329602,2.74007 -1.2886,3.90289 -0.208423,0.25273 -0.452321,0.47397 -0.678481,0.71095 -0.949479,0.80705 -0.466069,0.43863 -1.444856,1.11227 0,0 3.17935,2.0199 3.17935,2.0199 v 0 c 0.977797,-0.73308 0.491035,-0.33797 1.455238,-1.19152 1.111498,-1.20478 2.136833,-2.4166 2.227349,-4.13835 0.01278,-0.24294 -0.02564,-0.48587 -0.03847,-0.72881 -0.158879,-1.33262 -0.391959,-2.64938 -0.667686,-3.96252 z" />
    <path
       style="fill:#717171;fill-opacity:1;stroke-width:0.264583"
       id="path12"
       d="m 71.984454,179.93311 c -0.427077,1.09963 -1.018982,2.13123 -1.675278,3.10865 -0.328907,0.37512 -0.493959,0.59983 -0.89444,0.90754 -1.184082,0.90981 -2.755456,1.19502 -4.164947,1.54812 -1.388094,0.32714 -2.798127,0.5436 -4.203827,0.77733 0,0 3.005506,2.10221 3.005506,2.10221 v 0 c 1.38748,-0.27384 2.778805,-0.52863 4.159858,-0.83414 1.284301,-0.30419 2.645913,-0.54997 3.83249,-1.16094 0.633034,-0.32595 1.124201,-0.86245 1.565984,-1.40478 0.668194,-0.99705 1.230344,-2.05843 1.80958,-3.10881 z" />
  </g>
</svg>
